<?xml version="1.0" standalone="no"?>
<!DOCTYPE svg PUBLIC "-//W3C//DTD SVG 20010904//EN"
 "http://www.w3.org/TR/2001/REC-SVG-20010904/DTD/svg10.dtd">
<svg version="1.0" xmlns="http://www.w3.org/2000/svg"
 width="666.000000pt" height="372.000000pt" viewBox="0 0 666.000000 372.000000"
 preserveAspectRatio="xMidYMid meet">

<g transform="translate(0.000000,372.000000) scale(0.100000,-0.100000)"
fill="#000000" stroke="none">
<path d="M3078 3029 l-298 -172 0 -342 0 -343 113 -65 112 -66 3 338 2 338
278 158 c152 88 289 166 304 175 l27 16 -112 65 c-62 35 -116 65 -122 67 -5 1
-144 -75 -307 -169z"/>
<path d="M3572 2747 l-302 -172 0 -139 c0 -115 2 -137 14 -133 8 3 108 59 223
125 114 65 218 124 231 131 l22 12 0 -140 0 -139 -242 -139 -243 -139 0 -64 0
-64 49 -29 c27 -15 57 -26 65 -24 9 3 144 79 301 170 l285 165 0 346 0 346
-51 30 -51 29 -301 -172z"/>
<path d="M1620 1410 l0 -270 25 0 25 0 0 120 0 120 100 0 100 0 0 25 0 25
-100 0 -100 0 0 100 0 100 125 0 125 0 0 25 0 25 -150 0 -150 0 0 -270z"/>
<path d="M3513 1667 c-55 -31 -81 -99 -63 -167 12 -45 61 -84 138 -109 23 -8
56 -26 74 -41 28 -24 33 -34 33 -73 0 -68 -31 -97 -105 -97 -65 0 -95 22 -106
78 -8 39 -37 40 -43 2 -8 -63 68 -130 150 -130 89 0 151 57 151 139 0 80 -20
105 -127 156 -108 52 -131 77 -122 131 7 45 30 71 68 79 66 15 129 -23 129
-77 0 -16 5 -28 13 -28 52 1 46 73 -11 120 -32 26 -44 30 -97 30 -33 -1 -70
-6 -82 -13z"/>
<path d="M4310 1638 c-32 -44 -37 -58 -19 -58 13 0 109 80 109 92 0 4 -13 8
-30 8 -24 0 -36 -9 -60 -42z"/>
<path d="M4747 1673 c-4 -3 -7 -44 -7 -90 l0 -83 -34 16 c-65 32 -146 -5 -166
-74 -13 -50 -12 -189 3 -232 14 -41 68 -80 111 -80 17 0 46 9 65 21 31 18 35
19 43 5 24 -42 28 -3 28 254 0 255 -1 270 -18 270 -10 0 -22 -3 -25 -7z m-19
-210 c13 -18 17 -240 4 -259 -15 -22 -54 -36 -88 -30 -54 11 -64 35 -64 162 0
111 0 113 27 134 22 17 36 21 68 16 22 -4 46 -14 53 -23z"/>
<path d="M2080 1523 c-54 -17 -90 -56 -90 -98 0 -28 40 -17 51 14 13 38 58 57
102 45 36 -11 57 -44 57 -91 l0 -33 -55 0 c-102 0 -155 -39 -155 -115 0 -93
97 -144 179 -94 32 19 36 20 47 5 6 -9 14 -16 18 -16 3 0 6 68 6 150 0 113 -4
158 -15 179 -22 44 -94 71 -145 54z m118 -259 c-6 -70 -24 -89 -84 -89 -53 0
-84 28 -84 76 0 49 30 69 106 69 l66 0 -4 -56z"/>
<path d="M2430 1523 c-8 -3 -23 -12 -32 -21 -16 -14 -20 -13 -38 3 -20 18 -20
17 -20 -173 0 -185 1 -192 20 -192 19 0 20 7 20 145 0 142 1 147 25 170 15 16
36 25 55 25 25 0 30 4 30 25 0 19 -5 25 -22 24 -13 0 -30 -3 -38 -6z"/>
<path d="M2624 1516 c-57 -25 -64 -46 -64 -189 0 -128 0 -129 28 -157 56 -56
165 -49 202 13 17 27 20 51 20 145 0 130 -11 160 -64 186 -41 19 -80 20 -122
2z m125 -51 c13 -13 16 -40 16 -135 0 -141 -7 -155 -81 -155 -72 0 -84 22 -84
152 0 110 8 138 43 153 29 13 87 4 106 -15z"/>
<path d="M2993 1523 c-30 -6 -71 -49 -78 -84 -11 -49 21 -90 90 -117 105 -40
110 -43 110 -87 0 -32 -5 -42 -25 -53 -55 -29 -140 7 -140 59 0 12 -7 19 -20
19 -32 0 -26 -52 10 -88 82 -82 230 -34 230 74 0 36 -46 77 -115 103 -33 12
-68 30 -77 38 -36 32 -16 89 35 98 46 9 87 -10 100 -45 14 -36 47 -42 47 -7 0
66 -77 108 -167 90z"/>
<path d="M3902 1513 c-52 -25 -84 -103 -42 -103 13 0 25 12 34 34 10 24 22 36
44 41 66 14 112 -25 112 -95 0 -30 0 -30 -55 -30 -102 0 -155 -39 -155 -115 0
-93 97 -144 179 -94 32 19 36 20 47 5 6 -9 14 -16 18 -16 13 0 6 290 -8 324
-24 58 -107 82 -174 49z m148 -228 c0 -61 -24 -103 -62 -110 -83 -16 -138 58
-92 123 13 19 24 22 85 22 l69 0 0 -35z"/>
<path d="M4964 1523 c-12 -2 -34 -17 -50 -34 -27 -28 -29 -35 -32 -132 -4
-125 9 -172 58 -205 29 -20 43 -23 82 -18 58 6 84 22 103 62 22 47 19 64 -10
64 -20 0 -25 -5 -25 -24 0 -37 -46 -69 -89 -62 -55 9 -71 31 -71 98 l0 58 106
0 107 0 -5 63 c-3 35 -12 73 -19 85 -26 41 -86 59 -155 45z m83 -44 c36 -13
43 -25 43 -76 l0 -43 -80 0 -80 0 0 44 c0 36 5 48 26 65 30 24 50 26 91 10z"/>
<path d="M4181 1383 c0 -159 10 -198 58 -230 42 -29 86 -29 130 -2 31 18 35
19 43 5 23 -40 28 -7 28 174 0 183 -1 190 -20 190 -19 0 -20 -7 -20 -134 0
-73 -5 -147 -11 -164 -12 -36 -55 -57 -98 -47 -54 12 -61 33 -61 197 l0 148
-25 0 -25 0 1 -137z"/>
</g>
</svg>
